<svg width="93" height="87" viewBox="0 0 93 87" fill="none" xmlns="http://www.w3.org/2000/svg">
<path d="M91.5223 11.2922C90.6025 10.2376 89.2783 9.63088 87.8818 9.63088H21.3372L20.3982 4.02571C20.013 1.70467 18.0049 0 15.6502 0H4.81544C2.1525 0 0 2.1525 0 4.81544C0 7.47838 2.1525 9.63088 4.81544 9.63088H11.5715L20.5282 63.3905L20.7449 63.9876L21.005 64.7147L21.5828 65.5767L22.0403 66.116L22.9696 66.742L23.509 67.055C24.0676 67.2813 24.6551 67.4162 25.2762 67.4162H78.2509C80.9138 67.4162 83.0663 65.2637 83.0663 62.6007C83.0663 59.9378 80.9138 57.7853 78.2509 57.7853H29.3597L28.5604 52.9698H83.0663C85.4644 52.9698 87.4965 51.2074 87.8336 48.8382L92.6491 15.1301C92.8465 13.7433 92.4324 12.342 91.5223 11.2922ZM82.3296 19.2618L80.9572 28.8926H63.8046V19.2618H82.3296ZM58.9891 19.2618V28.8926H44.5428V19.2618H58.9891ZM58.9891 33.7081V43.339H44.5428V33.7081H58.9891ZM39.7274 19.2618V28.8926H25.2811L24.5684 29.0371L22.9408 19.2618H39.7274ZM25.3485 33.7081H39.7274V43.339H26.952L25.3485 33.7081ZM63.8046 43.339V33.7081H80.2638L78.8914 43.339H63.8046Z" fill="black"/>
<path d="M32.5042 86.6779C36.4935 86.6779 39.7274 83.444 39.7274 79.4548C39.7274 75.4655 36.4935 72.2316 32.5042 72.2316C28.515 72.2316 25.2811 75.4655 25.2811 79.4548C25.2811 83.444 28.515 86.6779 32.5042 86.6779Z" fill="black"/>
<path d="M75.8432 86.6779C79.8324 86.6779 83.0663 83.444 83.0663 79.4548C83.0663 75.4655 79.8324 72.2316 75.8432 72.2316C71.8539 72.2316 68.62 75.4655 68.62 79.4548C68.62 83.444 71.8539 86.6779 75.8432 86.6779Z" fill="black"/>
</svg>
