<svg width="209" height="157" viewBox="0 0 209 157" fill="none" xmlns="http://www.w3.org/2000/svg">
<path d="M209 110.306C209 123.13 198.602 133.528 185.778 133.528H23.2222C10.3977 133.528 0 123.13 0 110.306V92.8889C0 80.0644 10.3977 69.6667 23.2222 69.6667H185.778C198.602 69.6667 209 80.0644 209 92.8889V110.306Z" fill="#DD2E44"/>
<path d="M110.306 29.0277L104.622 23.2222H41.4865C23.2222 23.2222 17.4167 34.8333 17.4167 34.8333L0 69.4286V98.6944H110.306V29.0277Z" fill="#FFCC4D"/>
<path d="M52.25 69.6667H11.6111L23.2222 46.4445C23.2222 46.4445 29.0278 34.8334 40.6389 34.8334H52.25V69.6667Z" fill="#55ACEE"/>
<path d="M52.25 156.75C65.0753 156.75 75.4722 146.353 75.4722 133.528C75.4722 120.702 65.0753 110.306 52.25 110.306C39.4247 110.306 29.0278 120.702 29.0278 133.528C29.0278 146.353 39.4247 156.75 52.25 156.75Z" fill="#292F33"/>
<path d="M52.25 145.139C58.6626 145.139 63.8611 139.94 63.8611 133.528C63.8611 127.115 58.6626 121.917 52.25 121.917C45.8373 121.917 40.6389 127.115 40.6389 133.528C40.6389 139.94 45.8373 145.139 52.25 145.139Z" fill="#CCD6DD"/>
<path d="M156.75 156.75C169.575 156.75 179.972 146.353 179.972 133.528C179.972 120.702 169.575 110.306 156.75 110.306C143.925 110.306 133.528 120.702 133.528 133.528C133.528 146.353 143.925 156.75 156.75 156.75Z" fill="#292F33"/>
<path d="M156.75 145.139C163.163 145.139 168.361 139.94 168.361 133.528C168.361 127.115 163.163 121.917 156.75 121.917C150.337 121.917 145.139 127.115 145.139 133.528C145.139 139.94 150.337 145.139 156.75 145.139Z" fill="#CCD6DD"/>
<path d="M185.778 0H98.6944C85.87 0 75.4722 10.3977 75.4722 23.2222V98.6944H209V23.2222C209 10.3977 198.602 0 185.778 0Z" fill="#CCD6DD"/>
</svg>
