<svg width="632" height="148" viewBox="0 0 632 148" fill="none" xmlns="http://www.w3.org/2000/svg">
<path d="M50.6023 73.9066H66.1363C65.8246 78.998 64.4219 83.518 61.9281 87.4664C59.469 91.4148 56.0228 94.4974 51.5895 96.7141C47.1908 98.9307 41.8915 100.039 35.6918 100.039C30.8428 100.039 26.4961 99.2078 22.6516 97.5453C18.807 95.8482 15.5167 93.4237 12.7805 90.2719C10.0789 87.1201 8.0181 83.3102 6.59805 78.8422C5.17799 74.3742 4.46797 69.3694 4.46797 63.8277V58.5805C4.46797 53.0388 5.19531 48.034 6.65 43.566C8.13932 39.0634 10.2521 35.2362 12.9883 32.0844C15.7591 28.9326 19.0668 26.5081 22.9113 24.8109C26.7559 23.1138 31.0507 22.2652 35.7957 22.2652C42.0993 22.2652 47.4159 23.4082 51.7453 25.6941C56.1094 27.9801 59.4863 31.1319 61.8762 35.1496C64.3007 39.1673 65.7553 43.7392 66.2402 48.8652H50.6543C50.4811 45.8173 49.875 43.237 48.8359 41.1242C47.7969 38.9768 46.221 37.3663 44.1082 36.2926C42.0301 35.1842 39.2592 34.6301 35.7957 34.6301C33.198 34.6301 30.9294 35.115 28.9898 36.0848C27.0503 37.0546 25.4224 38.5266 24.1063 40.5008C22.7901 42.475 21.803 44.9687 21.1449 47.982C20.5215 50.9607 20.2098 54.4589 20.2098 58.4766V63.8277C20.2098 67.7415 20.5042 71.1878 21.093 74.1664C21.6818 77.1104 22.5823 79.6042 23.7945 81.6477C25.0414 83.6565 26.6346 85.1805 28.5742 86.2195C30.5484 87.224 32.921 87.7262 35.6918 87.7262C38.9475 87.7262 41.6318 87.2066 43.7445 86.1676C45.8573 85.1285 47.4678 83.5872 48.5762 81.5437C49.7191 79.5003 50.3945 76.9546 50.6023 73.9066ZM90.3984 55.0477V99H75.4359V42.7867H89.5152L90.3984 55.0477ZM107.335 42.423L107.075 56.2945C106.348 56.1906 105.465 56.104 104.426 56.0348C103.421 55.9309 102.504 55.8789 101.672 55.8789C99.5595 55.8789 97.7238 56.156 96.1652 56.7102C94.6413 57.2297 93.3598 58.009 92.3207 59.048C91.3163 60.0871 90.5543 61.3513 90.0348 62.8406C89.5499 64.3299 89.2728 66.0271 89.2035 67.932L86.1902 66.9969C86.1902 63.3602 86.5539 60.0178 87.2813 56.9699C88.0086 53.8874 89.065 51.2031 90.4504 48.9172C91.8704 46.6312 93.6022 44.8648 95.6457 43.618C97.6892 42.3711 100.027 41.7477 102.659 41.7477C103.491 41.7477 104.339 41.8169 105.205 41.9555C106.071 42.0594 106.781 42.2152 107.335 42.423ZM142.975 86.3234V61.282C142.975 59.481 142.681 57.9397 142.092 56.6582C141.503 55.3421 140.585 54.3203 139.338 53.593C138.126 52.8656 136.55 52.502 134.611 52.502C132.948 52.502 131.511 52.7964 130.298 53.3852C129.086 53.9393 128.151 54.7533 127.493 55.827C126.835 56.866 126.506 58.0956 126.506 59.5156H111.543C111.543 57.1258 112.098 54.8572 113.206 52.7098C114.314 50.5624 115.925 48.6747 118.038 47.0469C120.15 45.3844 122.661 44.0855 125.571 43.1504C128.515 42.2152 131.805 41.7477 135.442 41.7477C139.806 41.7477 143.685 42.475 147.079 43.9297C150.474 45.3844 153.14 47.5664 155.08 50.4758C157.054 53.3852 158.041 57.0219 158.041 61.3859V85.4402C158.041 88.5228 158.232 91.0512 158.613 93.0254C158.994 94.965 159.548 96.6621 160.275 98.1168V99H145.157C144.43 97.476 143.876 95.5711 143.495 93.2852C143.148 90.9646 142.975 88.644 142.975 86.3234ZM144.949 64.7629L145.053 73.2312H136.689C134.714 73.2312 133 73.4564 131.545 73.9066C130.091 74.3569 128.896 74.9977 127.961 75.8289C127.025 76.6255 126.333 77.5607 125.882 78.6344C125.467 79.7081 125.259 80.8857 125.259 82.1672C125.259 83.4487 125.553 84.609 126.142 85.648C126.731 86.6525 127.58 87.4491 128.688 88.0379C129.796 88.5921 131.095 88.8691 132.584 88.8691C134.836 88.8691 136.793 88.4189 138.455 87.5184C140.118 86.6178 141.399 85.5095 142.3 84.1934C143.235 82.8772 143.72 81.6303 143.754 80.4527L147.703 86.791C147.149 88.2111 146.387 89.6831 145.417 91.207C144.482 92.731 143.287 94.1684 141.832 95.5191C140.377 96.8353 138.628 97.9263 136.585 98.7922C134.541 99.6234 132.117 100.039 129.311 100.039C125.744 100.039 122.505 99.329 119.596 97.909C116.721 96.4543 114.435 94.4628 112.738 91.9344C111.076 89.3714 110.245 86.462 110.245 83.2062C110.245 80.2622 110.799 77.6473 111.907 75.3613C113.015 73.0754 114.643 71.1531 116.791 69.5945C118.973 68.0013 121.692 66.8064 124.947 66.0098C128.203 65.1785 131.978 64.7629 136.273 64.7629H144.949ZM188.642 99H173.575V37.7992C173.575 33.5391 174.407 29.9543 176.069 27.0449C177.766 24.1009 180.139 21.8842 183.187 20.3949C186.269 18.871 189.923 18.109 194.149 18.109C195.534 18.109 196.868 18.2129 198.149 18.4207C199.431 18.5939 200.678 18.819 201.89 19.0961L201.734 30.3699C201.076 30.1967 200.383 30.0755 199.656 30.0062C198.929 29.937 198.08 29.9023 197.11 29.9023C195.309 29.9023 193.768 30.2141 192.486 30.8375C191.239 31.4263 190.287 32.3095 189.629 33.4871C188.971 34.6647 188.642 36.1021 188.642 37.7992V99ZM199.864 42.7867V53.3852H165.211V42.7867H199.864ZM235.244 42.7867V53.3852H202.513V42.7867H235.244ZM210.618 28.9152H225.58V82.0633C225.58 83.6911 225.788 84.938 226.204 85.8039C226.654 86.6698 227.312 87.2759 228.178 87.6223C229.044 87.934 230.135 88.0898 231.451 88.0898C232.386 88.0898 233.218 88.0552 233.945 87.9859C234.707 87.882 235.348 87.7781 235.867 87.6742L235.919 98.6883C234.638 99.1039 233.252 99.4329 231.763 99.6754C230.274 99.9178 228.628 100.039 226.827 100.039C223.537 100.039 220.662 99.5022 218.203 98.4285C215.779 97.3202 213.908 95.5538 212.592 93.1293C211.276 90.7048 210.618 87.5184 210.618 83.5699V28.9152ZM274.157 83.466C274.157 82.3923 273.845 81.4225 273.221 80.5566C272.598 79.6908 271.438 78.8941 269.741 78.1668C268.078 77.4048 265.671 76.7121 262.519 76.0887C259.679 75.4652 257.029 74.6859 254.57 73.7508C252.146 72.781 250.033 71.6207 248.232 70.2699C246.466 68.9191 245.08 67.3259 244.076 65.4902C243.071 63.6199 242.569 61.4898 242.569 59.1C242.569 56.7448 243.071 54.5281 244.076 52.45C245.115 50.3719 246.587 48.5362 248.492 46.943C250.431 45.3151 252.787 44.0509 255.557 43.1504C258.363 42.2152 261.515 41.7477 265.013 41.7477C269.896 41.7477 274.087 42.527 277.586 44.0855C281.118 45.6441 283.82 47.7915 285.69 50.5277C287.595 53.2293 288.548 56.3118 288.548 59.7754H273.585C273.585 58.3207 273.273 57.0219 272.65 55.8789C272.061 54.7013 271.126 53.7835 269.845 53.1254C268.598 52.4327 266.97 52.0863 264.961 52.0863C263.298 52.0863 261.861 52.3807 260.649 52.9695C259.437 53.5237 258.501 54.2857 257.843 55.2555C257.22 56.1906 256.908 57.2297 256.908 58.3727C256.908 59.2385 257.081 60.0178 257.428 60.7105C257.809 61.3686 258.415 61.9747 259.246 62.5289C260.077 63.0831 261.151 63.6026 262.467 64.0875C263.818 64.5378 265.48 64.9534 267.455 65.3344C271.507 66.1656 275.126 67.2566 278.313 68.6074C281.499 69.9236 284.028 71.7246 285.898 74.0105C287.768 76.2618 288.704 79.2232 288.704 82.8945C288.704 85.3883 288.149 87.6742 287.041 89.7523C285.933 91.8305 284.339 93.6488 282.261 95.2074C280.183 96.7314 277.689 97.9263 274.78 98.7922C271.905 99.6234 268.667 100.039 265.065 100.039C259.835 100.039 255.402 99.1039 251.765 97.2336C248.163 95.3633 245.427 92.9908 243.556 90.116C241.721 87.2066 240.803 84.228 240.803 81.1801H254.986C255.055 83.2236 255.575 84.8687 256.545 86.1156C257.549 87.3625 258.813 88.263 260.337 88.8172C261.896 89.3714 263.576 89.6484 265.377 89.6484C267.316 89.6484 268.927 89.3887 270.208 88.8691C271.49 88.315 272.46 87.5876 273.118 86.6871C273.81 85.752 274.157 84.6783 274.157 83.466Z" fill="black"/>
<path d="M306.471 23.3562H319.668L339.098 78.8941L358.529 23.3562H371.725L344.397 99H333.799L306.471 23.3562ZM299.354 23.3562H312.498L314.888 77.4914V99H299.354V23.3562ZM365.698 23.3562H378.894V99H363.308V77.4914L365.698 23.3562ZM421.963 86.3234V61.282C421.963 59.481 421.669 57.9397 421.08 56.6582C420.491 55.3421 419.573 54.3203 418.327 53.593C417.114 52.8656 415.538 52.502 413.599 52.502C411.936 52.502 410.499 52.7964 409.287 53.3852C408.074 53.9393 407.139 54.7533 406.481 55.827C405.823 56.866 405.494 58.0956 405.494 59.5156H390.532C390.532 57.1258 391.086 54.8572 392.194 52.7098C393.302 50.5624 394.913 48.6747 397.026 47.0469C399.139 45.3844 401.65 44.0855 404.559 43.1504C407.503 42.2152 410.793 41.7477 414.43 41.7477C418.794 41.7477 422.673 42.475 426.068 43.9297C429.462 45.3844 432.129 47.5664 434.068 50.4758C436.043 53.3852 437.03 57.0219 437.03 61.3859V85.4402C437.03 88.5228 437.22 91.0512 437.601 93.0254C437.982 94.965 438.536 96.6621 439.264 98.1168V99H424.145C423.418 97.476 422.864 95.5711 422.483 93.2852C422.136 90.9646 421.963 88.644 421.963 86.3234ZM423.938 64.7629L424.041 73.2312H415.677C413.703 73.2312 411.988 73.4564 410.534 73.9066C409.079 74.3569 407.884 74.9977 406.949 75.8289C406.014 76.6255 405.321 77.5607 404.871 78.6344C404.455 79.7081 404.247 80.8857 404.247 82.1672C404.247 83.4487 404.542 84.609 405.13 85.648C405.719 86.6525 406.568 87.4491 407.676 88.0379C408.785 88.5921 410.083 88.8691 411.573 88.8691C413.824 88.8691 415.781 88.4189 417.443 87.5184C419.106 86.6178 420.387 85.5095 421.288 84.1934C422.223 82.8772 422.708 81.6303 422.743 80.4527L426.691 86.791C426.137 88.2111 425.375 89.6831 424.405 91.207C423.47 92.731 422.275 94.1684 420.82 95.5191C419.366 96.8353 417.617 97.9263 415.573 98.7922C413.53 99.6234 411.105 100.039 408.3 100.039C404.732 100.039 401.494 99.329 398.584 97.909C395.71 96.4543 393.424 94.4628 391.727 91.9344C390.064 89.3714 389.233 86.462 389.233 83.2062C389.233 80.2622 389.787 77.6473 390.895 75.3613C392.004 73.0754 393.632 71.1531 395.779 69.5945C397.961 68.0013 400.68 66.8064 403.936 66.0098C407.191 65.1785 410.967 64.7629 415.261 64.7629H423.938ZM463.526 55.0477V99H448.563V42.7867H462.643L463.526 55.0477ZM480.463 42.423L480.203 56.2945C479.475 56.1906 478.592 56.104 477.553 56.0348C476.549 55.9309 475.631 55.8789 474.8 55.8789C472.687 55.8789 470.851 56.156 469.293 56.7102C467.769 57.2297 466.487 58.009 465.448 59.048C464.444 60.0871 463.682 61.3513 463.162 62.8406C462.677 64.3299 462.4 66.0271 462.331 67.932L459.318 66.9969C459.318 63.3602 459.681 60.0178 460.409 56.9699C461.136 53.8874 462.192 51.2031 463.578 48.9172C464.998 46.6312 466.73 44.8648 468.773 43.618C470.817 42.3711 473.154 41.7477 475.787 41.7477C476.618 41.7477 477.467 41.8169 478.332 41.9555C479.198 42.0594 479.908 42.2152 480.463 42.423ZM502.491 19.148V99H487.528V19.148H502.491ZM537.923 42.7867L513.505 70.6336L500.413 83.8816L494.957 73.0754L505.348 59.8793L519.947 42.7867H537.923ZM522.389 99L505.764 73.0234L516.102 63.9836L539.637 99H522.389ZM569.198 100.039C564.834 100.039 560.921 99.3464 557.457 97.9609C553.993 96.5409 551.049 94.584 548.625 92.0902C546.235 89.5965 544.399 86.7044 543.118 83.4141C541.836 80.0891 541.196 76.5562 541.196 72.8156V70.7375C541.196 66.4773 541.802 62.5809 543.014 59.048C544.226 55.5152 545.958 52.45 548.209 49.8523C550.495 47.2547 553.266 45.2632 556.522 43.8777C559.778 42.4577 563.449 41.7477 567.536 41.7477C571.519 41.7477 575.052 42.4057 578.134 43.7219C581.217 45.038 583.797 46.9083 585.875 49.3328C587.988 51.7573 589.581 54.6667 590.655 58.0609C591.729 61.4206 592.266 65.1612 592.266 69.2828V75.5172H547.586V65.5422H577.563V64.3992C577.563 62.3211 577.182 60.4681 576.42 58.8402C575.693 57.1777 574.584 55.8616 573.095 54.8918C571.606 53.922 569.701 53.4371 567.38 53.4371C565.406 53.4371 563.709 53.8701 562.289 54.7359C560.869 55.6018 559.708 56.8141 558.808 58.3727C557.942 59.9312 557.284 61.7669 556.834 63.8797C556.418 65.9578 556.21 68.2437 556.21 70.7375V72.8156C556.21 75.0669 556.522 77.1451 557.145 79.05C557.803 80.9549 558.721 82.6001 559.899 83.9855C561.111 85.371 562.566 86.4447 564.263 87.2066C565.995 87.9686 567.952 88.3496 570.134 88.3496C572.835 88.3496 575.346 87.8301 577.667 86.791C580.022 85.7173 582.048 84.1068 583.745 81.9594L591.019 89.8562C589.841 91.5534 588.231 93.1812 586.187 94.7398C584.178 96.2984 581.754 97.5799 578.914 98.5844C576.074 99.5542 572.835 100.039 569.198 100.039ZM628.321 42.7867V53.3852H595.591V42.7867H628.321ZM603.695 28.9152H618.658V82.0633C618.658 83.6911 618.866 84.938 619.281 85.8039C619.731 86.6698 620.39 87.2759 621.255 87.6223C622.121 87.934 623.212 88.0898 624.528 88.0898C625.464 88.0898 626.295 88.0552 627.022 87.9859C627.784 87.882 628.425 87.7781 628.945 87.6742L628.996 98.6883C627.715 99.1039 626.33 99.4329 624.84 99.6754C623.351 99.9178 621.706 100.039 619.905 100.039C616.614 100.039 613.74 99.5022 611.28 98.4285C608.856 97.3202 606.986 95.5538 605.67 93.1293C604.353 90.7048 603.695 87.5184 603.695 83.5699V28.9152Z" fill="#105680"/>
<line x1="7" y1="136" x2="431" y2="136" stroke="#105680" stroke-width="12"/>
<circle cx="493" cy="138" r="10" fill="black"/>
<circle cx="552" cy="138" r="10" fill="black"/>
<circle cx="611" cy="138" r="10" fill="black"/>
</svg>
