<svg width="186" height="184" viewBox="0 0 186 184" fill="none" xmlns="http://www.w3.org/2000/svg">
<path d="M51.1082 173.058L66.3255 158.277C66.3255 158.277 96.1008 155.087 110.255 146.399C124.409 137.711 122.569 134.318 122.569 134.318C134.043 128.906 130.247 118.07 130.247 118.07C141.497 109.743 134.83 105.894 134.83 105.894C146.081 92.4629 134 87.0502 131.501 82.7434C129.002 78.4366 106.512 81.01 100.163 82.7434C93.8145 84.4767 53.6072 93.505 48.6092 96.4187C43.6112 99.3325 13.7828 131.405 13.7828 131.405L51.1082 173.058Z" fill="#FFC9B0"/>
<path d="M51.1082 174.122C50.9644 174.116 50.8234 174.08 50.6936 174.018C50.5638 173.956 50.448 173.868 50.3532 173.76L12.9958 132.138C12.8165 131.942 12.717 131.686 12.717 131.421C12.717 131.155 12.8165 130.899 12.9958 130.703C14.2188 129.384 42.9944 98.4818 48.0881 95.5149C51.608 93.4625 70.2495 88.9005 89.0398 84.4023C94.176 83.1688 98.2276 82.2011 99.8865 81.7438C104.587 80.4571 129.3 76.8309 132.427 82.233C133.13 83.2349 133.94 84.1583 134.841 84.9872C138.839 88.9856 144.826 94.9725 136.329 105.766C137.232 106.658 137.777 107.85 137.861 109.116C138.02 111.966 135.872 115.124 131.48 118.516C132.108 121.154 133.352 129.98 123.728 134.956C123.632 136.807 121.601 140.646 110.829 147.324C97.3131 155.672 70.4196 158.915 66.8147 159.319L51.8632 173.835C51.6591 174.026 51.3878 174.129 51.1082 174.122ZM15.229 131.415L51.1933 171.484L65.613 157.479C65.7844 157.317 66.0052 157.216 66.2404 157.192C66.5382 157.192 95.9413 154.002 109.734 145.495C121.644 138.136 121.633 134.967 121.612 134.712C121.513 134.461 121.513 134.183 121.611 133.932C121.71 133.681 121.9 133.477 122.144 133.361C132.586 128.427 129.417 118.825 129.279 118.421C129.205 118.207 129.201 117.975 129.268 117.759C129.335 117.543 129.469 117.354 129.651 117.219C134.83 113.38 135.83 110.764 135.755 109.243C135.719 108.754 135.571 108.28 135.322 107.858C135.073 107.436 134.73 107.077 134.319 106.808C134.188 106.729 134.076 106.623 133.989 106.496C133.903 106.369 133.845 106.226 133.82 106.074C133.792 105.923 133.798 105.768 133.837 105.619C133.875 105.471 133.946 105.332 134.043 105.213C142.274 95.3873 137.329 90.4424 133.362 86.4653C132.317 85.5186 131.392 84.4472 130.608 83.2751C128.758 80.0849 108.277 81.6162 100.471 83.7643C98.7806 84.2322 94.7077 85.1999 89.5609 86.4334C75.7366 89.7406 52.7246 95.2596 49.1515 97.3226C45.3871 99.5345 25.6716 120.175 15.229 131.415Z" fill="#093F68"/>
<path d="M150.632 104.065C152.025 105.119 153.673 105.783 155.407 105.989C156.274 106.083 157.152 105.956 157.957 105.62C158.762 105.283 159.469 104.748 160.011 104.065C160.803 102.706 161.139 101.13 160.968 99.5664C160.754 93.3989 158.756 87.4259 155.215 82.3712C151.313 76.8415 139.009 74.2787 139.264 83.8068C139.339 90.6019 145.209 100.311 150.632 104.065Z" fill="#FFC9B0"/>
<path d="M155.875 107.074H155.332C153.399 106.865 151.56 106.129 150.015 104.947C144.528 101.151 138.318 91.3144 138.137 83.8387C138.031 79.0002 140.849 77.3519 142.54 76.7883C146.793 75.3953 153.248 77.7667 156.066 81.7757C159.726 86.995 161.795 93.1636 162.021 99.5345C162.213 101.333 161.81 103.145 160.873 104.692C160.286 105.454 159.527 106.067 158.659 106.481C157.79 106.895 156.836 107.098 155.875 107.074ZM145.241 78.5004C144.549 78.4917 143.86 78.5922 143.199 78.7982C141.2 79.4575 140.211 81.1376 140.264 83.7855C140.392 90.5381 146.261 99.7366 151.217 103.193C152.454 104.141 153.923 104.739 155.471 104.926C156.155 105.005 156.849 104.911 157.488 104.653C158.127 104.394 158.691 103.98 159.129 103.448C159.774 102.274 160.038 100.929 159.884 99.5983C159.681 93.6425 157.756 87.8731 154.343 82.988C153.241 81.629 151.857 80.5245 150.288 79.7499C148.719 78.9754 147.001 78.5491 145.251 78.5004H145.241Z" fill="#093F68"/>
<path d="M175.952 1.06342H60.4874C55.8595 1.06342 52.1078 4.8151 52.1078 9.44304V79.5638C52.1078 84.1918 55.8595 87.9434 60.4874 87.9434H175.952C180.58 87.9434 184.331 84.1918 184.331 79.5638V9.44304C184.331 4.8151 180.58 1.06342 175.952 1.06342Z" fill="#68E1FD"/>
<path d="M175.952 88.9962H60.4981C57.9926 88.9962 55.5897 88.0017 53.8171 86.231C52.0445 84.4604 51.0472 82.0586 51.0444 79.5532V9.44302C51.0472 6.9376 52.0445 4.53576 53.8171 2.76515C55.5897 0.99455 57.9926 -1.58507e-06 60.4981 0H175.952C178.455 0.0028146 180.856 0.998611 182.626 2.76891C184.396 4.53921 185.392 6.93944 185.395 9.44302V79.5532C185.392 82.0568 184.396 84.457 182.626 86.2273C180.856 87.9976 178.455 88.9934 175.952 88.9962ZM60.4981 2.12681C58.5567 2.1268 56.6947 2.89728 55.3209 4.26903C53.9472 5.64078 53.174 7.50167 53.1712 9.44302V79.5532C53.174 81.4945 53.9472 83.3554 55.3209 84.7272C56.6947 86.0989 58.5567 86.8694 60.4981 86.8694H175.952C177.891 86.8666 179.751 86.0949 181.122 84.7234C182.493 83.352 183.265 81.4927 183.268 79.5532V9.44302C183.265 7.50351 182.493 5.64423 181.122 4.27278C179.751 2.90134 177.891 2.12962 175.952 2.12681H60.4981Z" fill="#093F68"/>
<path d="M52.1078 18.567H184.331V36.379H52.1078V18.567Z" fill="white"/>
<path d="M184.331 37.4956H52.1078C51.8258 37.4956 51.5553 37.3835 51.3559 37.1841C51.1564 36.9847 51.0444 36.7142 51.0444 36.4322V18.567C51.0444 18.285 51.1564 18.0145 51.3559 17.8151C51.5553 17.6156 51.8258 17.5036 52.1078 17.5036H184.331C184.613 17.5036 184.884 17.6156 185.083 17.8151C185.283 18.0145 185.395 18.285 185.395 18.567V36.4322C185.395 36.7142 185.283 36.9847 185.083 37.1841C184.884 37.3835 184.613 37.4956 184.331 37.4956ZM53.1712 35.3688H183.268V19.6304H53.1712V35.3688Z" fill="#093F68"/>
<path d="M144.486 78.5429C141.976 78.5429 139.524 77.7989 137.437 76.4049C135.351 75.0109 133.725 73.0295 132.765 70.7114C131.805 68.3933 131.553 65.8425 132.043 63.3815C132.533 60.9206 133.741 58.6601 135.515 56.8859C137.289 55.1117 139.55 53.9034 142.011 53.4139C144.472 52.9244 147.022 53.1756 149.34 54.1358C151.659 55.096 153.64 56.7221 155.034 58.8084C156.428 60.8946 157.172 63.3474 157.172 65.8565C157.169 69.2203 155.832 72.4455 153.453 74.8241C151.075 77.2026 147.849 78.5401 144.486 78.5429ZM144.486 55.2969C142.397 55.2969 140.356 55.9163 138.619 57.0766C136.883 58.2369 135.529 59.886 134.73 61.8156C133.931 63.7451 133.721 65.8683 134.129 67.9166C134.536 69.965 135.542 71.8465 137.019 73.3233C138.496 74.8001 140.377 75.8058 142.426 76.2132C144.474 76.6207 146.597 76.4116 148.527 75.6123C150.456 74.8131 152.105 73.4597 153.266 71.7231C154.426 69.9866 155.045 67.945 155.045 65.8565C155.04 63.0577 153.925 60.3751 151.946 58.396C149.967 56.4169 147.284 55.3026 144.486 55.2969Z" fill="#093F68"/>
<path d="M162.649 78.5429C160.139 78.5429 157.687 77.7989 155.6 76.4049C153.514 75.0109 151.888 73.0295 150.928 70.7114C149.968 68.3933 149.716 65.8425 150.206 63.3815C150.695 60.9206 151.904 58.6601 153.678 56.8859C155.452 55.1117 157.713 53.9034 160.174 53.4139C162.634 52.9244 165.185 53.1756 167.503 54.1358C169.822 55.096 171.803 56.7221 173.197 58.8084C174.591 60.8946 175.335 63.3474 175.335 65.8565C175.332 69.2203 173.995 72.4455 171.616 74.8241C169.238 77.2026 166.012 78.5401 162.649 78.5429ZM162.649 55.2969C160.56 55.2969 158.518 55.9163 156.782 57.0766C155.045 58.2369 153.692 59.886 152.893 61.8156C152.094 63.7451 151.884 65.8683 152.292 67.9166C152.699 69.965 153.705 71.8465 155.182 73.3233C156.659 74.8001 158.54 75.8058 160.588 76.2132C162.637 76.6207 164.76 76.4116 166.69 75.6123C168.619 74.8131 170.268 73.4597 171.429 71.7231C172.589 69.9866 173.208 67.945 173.208 65.8565C173.205 63.0568 172.092 60.3726 170.112 58.3929C168.132 56.4132 165.448 55.2998 162.649 55.2969Z" fill="#093F68"/>
<path d="M75.8323 45.5668H61.9443C61.6622 45.5668 61.3918 45.4548 61.1923 45.2553C60.9929 45.0559 60.8809 44.7854 60.8809 44.5034C60.8809 44.2214 60.9929 43.9509 61.1923 43.7515C61.3918 43.552 61.6622 43.44 61.9443 43.44H75.8323C76.1144 43.44 76.3848 43.552 76.5843 43.7515C76.7837 43.9509 76.8957 44.2214 76.8957 44.5034C76.8957 44.7854 76.7837 45.0559 76.5843 45.2553C76.3848 45.4548 76.1144 45.5668 75.8323 45.5668Z" fill="#093F68"/>
<path d="M95.9519 45.5668H82.032C81.7499 45.5668 81.4794 45.4548 81.28 45.2553C81.0806 45.0559 80.9686 44.7854 80.9686 44.5034C80.9686 44.2214 81.0806 43.9509 81.28 43.7515C81.4794 43.552 81.7499 43.44 82.032 43.44H95.92C96.202 43.44 96.4725 43.552 96.6719 43.7515C96.8714 43.9509 96.9834 44.2214 96.9834 44.5034C96.9834 44.7854 96.8714 45.0559 96.6719 45.2553C96.4725 45.4548 96.202 45.5668 95.92 45.5668H95.9519Z" fill="#093F68"/>
<path d="M116.061 45.5668H102.237C101.955 45.5668 101.684 45.4548 101.485 45.2553C101.285 45.0559 101.173 44.7854 101.173 44.5034C101.173 44.2214 101.285 43.9509 101.485 43.7515C101.684 43.552 101.955 43.44 102.237 43.44H116.061C116.343 43.44 116.613 43.552 116.813 43.7515C117.012 43.9509 117.124 44.2214 117.124 44.5034C117.124 44.7854 117.012 45.0559 116.813 45.2553C116.613 45.4548 116.343 45.5668 116.061 45.5668Z" fill="#093F68"/>
<path d="M136.191 45.5668H122.303C122.021 45.5668 121.751 45.4548 121.551 45.2553C121.352 45.0559 121.24 44.7854 121.24 44.5034C121.24 44.2214 121.352 43.9509 121.551 43.7515C121.751 43.552 122.021 43.44 122.303 43.44H136.191C136.473 43.44 136.744 43.552 136.943 43.7515C137.142 43.9509 137.254 44.2214 137.254 44.5034C137.254 44.7854 137.142 45.0559 136.943 45.2553C136.744 45.4548 136.473 45.5668 136.191 45.5668Z" fill="#093F68"/>
<path d="M32.8177 111.859C32.8177 111.859 38.5281 94.7386 44.8235 85.0935C51.1188 75.4484 70.2176 60.5183 77.0127 58.5084C83.8078 56.4986 115.625 47.683 120.612 52.681C125.6 57.679 120.219 68.5151 111.042 72.673C101.864 76.8309 87.6467 79.7552 87.6467 79.7552C87.6467 79.7552 94.6014 97.2482 77.2041 111.827" fill="#FFC9B0"/>
<path d="M32.807 112.923C32.6952 112.921 32.5842 112.903 32.4774 112.87C32.3445 112.825 32.2217 112.755 32.1161 112.663C32.0104 112.571 31.924 112.459 31.8617 112.334C31.7995 112.208 31.7626 112.072 31.7533 111.932C31.744 111.792 31.7624 111.652 31.8074 111.519C32.0414 110.817 37.6349 94.1643 43.9302 84.5193C50.2256 74.8742 69.4519 59.625 76.715 57.4982C83.1911 55.5841 115.774 46.3325 121.378 51.926C122.323 52.9326 123.005 54.1577 123.361 55.492C123.717 56.8262 123.737 58.2279 123.42 59.5718C122.441 65.1441 117.55 70.9077 111.531 73.6513C103.779 77.1818 92.666 79.7765 89.0717 80.5634C90.2733 84.817 93.102 99.9492 77.9379 112.657C77.7207 112.837 77.4407 112.924 77.1595 112.898C76.8783 112.872 76.619 112.736 76.4385 112.519C76.258 112.302 76.1711 112.022 76.1971 111.74C76.223 111.459 76.3595 111.2 76.5767 111.019C83.5633 105.171 87.3915 98.184 87.9445 90.2616C88.227 86.8453 87.8072 83.4073 86.7109 80.1593C86.6533 80.0147 86.6282 79.8592 86.6373 79.7039C86.6464 79.5485 86.6894 79.397 86.7635 79.26C86.8375 79.1231 86.9407 79.0041 87.0658 78.9115C87.1908 78.8188 87.3347 78.7547 87.4872 78.7237C87.6255 78.7237 101.705 75.7887 110.648 71.7159C116.071 69.2594 120.474 64.1126 121.357 59.2103C121.6 58.2035 121.594 57.1526 121.34 56.1484C121.087 55.1442 120.592 54.2169 119.9 53.4466C116.22 49.7885 92.4108 55.0843 77.3105 59.5399C71.047 61.3903 52.0972 75.8951 45.7168 85.689C39.5703 95.1108 33.8811 112.04 33.8173 112.21C33.7441 112.42 33.6074 112.601 33.4263 112.728C33.2452 112.856 33.0287 112.924 32.807 112.923Z" fill="#093F68"/>
<path d="M139.583 87.3798H108.745C104.005 87.3798 100.163 91.222 100.163 95.9615V97.0993C100.163 101.839 104.005 105.681 108.745 105.681H139.583C144.323 105.681 148.165 101.839 148.165 97.0993V95.9615C148.165 91.222 144.323 87.3798 139.583 87.3798Z" fill="#FFC9B0"/>
<path d="M139.583 106.744H108.745C106.187 106.742 103.736 105.725 101.928 103.916C100.119 102.108 99.1024 99.6565 99.0996 97.0993V95.9828C99.1024 93.4256 100.119 90.974 101.928 89.1658C103.736 87.3576 106.187 86.3405 108.745 86.3377H139.583C142.14 86.3405 144.59 87.3579 146.397 89.1664C148.203 90.9749 149.218 93.4266 149.218 95.9828V97.1206C149.212 99.6731 148.195 102.119 146.389 103.923C144.583 105.727 142.136 106.742 139.583 106.744ZM108.745 88.4432C106.752 88.446 104.841 89.239 103.432 90.6484C102.022 92.0577 101.229 93.9684 101.226 95.9615V97.0993C101.229 99.0924 102.022 101.003 103.432 102.412C104.841 103.822 106.752 104.615 108.745 104.618H139.583C141.575 104.615 143.485 103.821 144.893 102.412C146.3 101.002 147.091 99.0915 147.091 97.0993V95.9828C147.091 93.9906 146.3 92.0799 144.893 90.6703C143.485 89.2607 141.575 88.4673 139.583 88.4645L108.745 88.4432Z" fill="#093F68"/>
<path d="M137.988 106.011H107.15C102.41 106.011 98.5679 109.853 98.5679 114.592V115.73C98.5679 120.47 102.41 124.312 107.15 124.312H137.988C142.728 124.312 146.57 120.47 146.57 115.73V114.592C146.57 109.853 142.728 106.011 137.988 106.011Z" fill="#FFC9B0"/>
<path d="M137.988 125.375H107.15C104.592 125.372 102.141 124.355 100.333 122.547C98.5244 120.739 97.5073 118.287 97.5045 115.73V114.592C97.5073 112.035 98.5244 109.584 100.333 107.775C102.141 105.967 104.592 104.95 107.15 104.947H137.988C140.544 104.95 142.995 105.967 144.801 107.776C146.608 109.584 147.623 112.036 147.623 114.592V115.73C147.623 118.286 146.608 120.738 144.801 122.546C142.995 124.355 140.544 125.372 137.988 125.375ZM107.15 107.074C105.156 107.077 103.246 107.87 101.836 109.279C100.427 110.689 99.6341 112.599 99.6313 114.592V115.73C99.6341 117.723 100.427 119.634 101.836 121.043C103.246 122.453 105.156 123.246 107.15 123.248H137.988C139.98 123.246 141.89 122.452 143.298 121.043C144.705 119.633 145.496 117.722 145.496 115.73V114.592C145.496 112.6 144.705 110.689 143.298 109.28C141.89 107.87 139.98 107.077 137.988 107.074H107.15Z" fill="#093F68"/>
<path d="M134.862 124.312H104.023C99.2836 124.312 95.4415 128.154 95.4415 132.893V134.031C95.4415 138.771 99.2836 142.613 104.023 142.613H134.862C139.601 142.613 143.443 138.771 143.443 134.031V132.893C143.443 128.154 139.601 124.312 134.862 124.312Z" fill="#FFC9B0"/>
<path d="M134.862 143.676H104.023C101.466 143.674 99.0143 142.656 97.2062 140.848C95.398 139.04 94.3809 136.588 94.3781 134.031V132.893C94.3809 130.336 95.398 127.885 97.2062 126.077C99.0143 124.268 101.466 123.251 104.023 123.248H134.862C137.419 123.251 139.871 124.268 141.679 126.077C143.487 127.885 144.504 130.336 144.507 132.893V134.031C144.504 136.588 143.487 139.04 141.679 140.848C139.871 142.656 137.419 143.674 134.862 143.676ZM104.023 125.375C102.03 125.378 100.119 126.171 98.71 127.58C97.3007 128.99 96.5077 130.9 96.5049 132.893V134.031C96.5077 136.024 97.3007 137.935 98.71 139.344C100.119 140.754 102.03 141.547 104.023 141.55H134.862C136.855 141.547 138.766 140.754 140.175 139.344C141.584 137.935 142.377 136.024 142.38 134.031V132.893C142.377 130.9 141.584 128.99 140.175 127.58C138.766 126.171 136.855 125.378 134.862 125.375H104.023Z" fill="#093F68"/>
<path d="M64.6241 161.297L19.6527 118.793L1.00066 138.54L44.7597 182.395L64.6241 161.297Z" fill="#F56132"/>
<path d="M44.8129 183.458C44.6729 183.459 44.5342 183.432 44.4046 183.379C44.275 183.326 44.1572 183.248 44.0578 183.15L0.298806 139.285C0.107139 139.086 0 138.821 0 138.545C0 138.27 0.107139 138.005 0.298806 137.806L18.9509 118.07C19.0463 117.967 19.1613 117.883 19.289 117.825C19.4168 117.767 19.5549 117.734 19.6953 117.729C19.9749 117.722 20.2462 117.825 20.4503 118.016L65.4322 160.553C65.6303 160.752 65.7415 161.021 65.7415 161.302C65.7415 161.583 65.6303 161.853 65.4322 162.052L45.5253 183.182C45.4277 183.284 45.3107 183.366 45.181 183.423C45.0514 183.479 44.9118 183.509 44.7703 183.511L44.8129 183.458ZM2.47879 138.519L44.7384 180.874L63.1247 161.34L19.6953 120.303L2.47879 138.519Z" fill="#093F68"/>
</svg>
