<svg width="132" height="190" viewBox="0 0 132 190" fill="none" xmlns="http://www.w3.org/2000/svg">
<path d="M104.677 48.7944C104.421 48.7944 104.175 48.6926 103.994 48.5115C103.813 48.3304 103.711 48.0847 103.711 47.8285V41.6469C103.548 31.0537 99.2243 20.9498 91.6752 13.5166C84.126 6.08333 73.9565 1.91698 63.362 1.91698C52.7675 1.91698 42.598 6.08333 35.0488 13.5166C27.4997 20.9498 23.1765 31.0537 23.0126 41.6469V47.8285C23.0126 48.0847 22.9108 48.3304 22.7297 48.5115C22.5485 48.6926 22.3029 48.7944 22.0467 48.7944C21.7905 48.7944 21.5448 48.6926 21.3637 48.5115C21.1826 48.3304 21.0808 48.0847 21.0808 47.8285V41.6469C21.2486 30.5439 25.7771 19.9525 33.6881 12.1602C41.5991 4.36785 52.2577 0 63.362 0C74.4663 0 85.1249 4.36785 93.0359 12.1602C100.947 19.9525 105.475 30.5439 105.643 41.6469V47.8285C105.643 48.0847 105.541 48.3304 105.36 48.5115C105.179 48.6926 104.933 48.7944 104.677 48.7944Z" fill="#093F68"/>
<path d="M101.799 176.773C101.799 180.453 108.338 180.433 116.403 180.433C124.468 180.433 130.997 180.433 130.997 176.773C130.997 173.112 124.458 168.08 116.403 168.08C108.348 168.08 101.799 173.093 101.799 176.773Z" fill="#F56132"/>
<path d="M116.702 181.399H116.248C112.78 181.508 109.309 181.35 105.865 180.926C104.619 180.714 100.833 180.047 100.833 176.773C100.833 172.426 108.019 167.114 116.403 167.114C124.787 167.114 131.963 172.436 131.963 176.773C131.963 180.047 128.177 180.714 126.931 180.926C123.539 181.35 120.119 181.508 116.702 181.399ZM116.248 179.468H116.693C120.003 179.573 123.316 179.425 126.603 179.023C130.032 178.424 130.032 177.265 130.032 176.773C130.032 173.721 123.927 169.046 116.403 169.046C108.879 169.046 102.765 173.73 102.765 176.773C102.765 177.265 102.765 178.424 106.194 179.023C109.53 179.419 112.891 179.568 116.248 179.468Z" fill="#093F68"/>
<path d="M100.997 164.419C100.997 164.419 105.894 166.052 106.976 168.041C108.058 170.031 108.975 178.376 111.69 177.652C114.404 176.927 112.057 168.592 114.23 168.766C116.403 168.94 131.364 176.203 130.997 172.397C130.63 168.592 123.84 162.603 118.035 159.706C112.23 156.808 102.34 155.533 102.34 155.533L100.997 164.419Z" fill="#FFC9B0"/>
<path d="M111.351 178.666C110.96 178.662 110.577 178.556 110.241 178.357C108.715 177.468 107.952 174.938 107.034 171.461C106.816 170.45 106.509 169.461 106.116 168.505C105.46 167.298 102.436 165.926 100.679 165.337C100.463 165.264 100.28 165.118 100.161 164.924C100.043 164.729 99.9968 164.499 100.031 164.274L101.384 155.388C101.422 155.14 101.555 154.917 101.755 154.766C101.955 154.614 102.207 154.547 102.456 154.577C102.871 154.577 112.578 155.9 118.46 158.837C123.831 161.531 131.509 167.703 131.983 172.301C132.027 172.617 131.987 172.938 131.866 173.234C131.746 173.529 131.549 173.787 131.297 173.981C129.568 175.305 124.893 173.672 118.48 171.219C116.867 170.611 115.06 169.915 114.355 169.761C114.194 170.672 114.129 171.598 114.162 172.523C114.162 175.102 114.162 178.019 111.97 178.589C111.768 178.641 111.56 178.667 111.351 178.666ZM102.06 163.782C103.596 164.361 106.831 165.772 107.855 167.587C108.331 168.675 108.696 169.808 108.946 170.968C109.449 172.9 110.299 176.135 111.255 176.686C111.288 176.704 111.324 176.713 111.361 176.713C111.398 176.713 111.435 176.704 111.467 176.686C112.192 176.493 112.221 173.875 112.23 172.475C112.23 170.543 112.23 168.949 113.109 168.177C113.272 168.024 113.466 167.909 113.678 167.838C113.89 167.768 114.114 167.745 114.336 167.771C115.997 168.143 117.615 168.683 119.165 169.384C122.063 170.485 128.747 173.035 130.06 172.446C129.693 169.297 123.695 163.56 117.639 160.527C113.071 158.247 105.759 156.982 103.151 156.586L102.06 163.782Z" fill="#093F68"/>
<path d="M69.6354 46.515C55.8137 44.815 38.1092 48.3791 27.9965 58.3759C26.3769 59.7707 25.1625 61.5756 24.4807 63.6013C22.7518 70.2658 24.3262 76.7758 18.444 81.7887C16.9469 83.0733 15.2276 84.1068 13.8561 85.5363C9.41306 90.1725 10.3306 98.7881 15.6623 102.381C12.6584 105.279 12.1948 110.031 13.1124 114.107C14.764 121.486 20.2598 127.629 26.8085 131.367C33.3571 135.105 40.9006 136.853 48.3958 137.858C59.3005 139.316 70.524 139.384 81.1583 136.583C91.7925 133.782 101.847 127.938 108.444 119.129C110.688 116.38 112.179 113.095 112.771 109.596C113.447 104.178 110.84 98.9716 108.338 94.1423C112.008 89.8248 112.907 83.6046 111.603 78.0991C110.299 72.5936 107.005 67.7159 103.142 63.611C94.2995 54.191 82.4517 48.1459 69.6354 46.515Z" fill="#725858"/>
<path d="M62.5265 139.818C57.7551 139.81 52.9895 139.488 48.2605 138.853C38.8143 137.587 32.0532 135.549 26.3255 132.246C18.9173 127.967 13.7691 121.448 12.1658 114.358C11.1323 109.741 11.905 105.424 14.2328 102.555C11.8762 100.496 10.4056 97.6069 10.1278 94.49C9.90574 92.7684 10.0621 91.0191 10.5859 89.3642C11.1097 87.7093 11.9884 86.1887 13.1606 84.9085C14.0575 84.0126 15.0267 83.192 16.0583 82.4552C16.6668 82.0012 17.2463 81.5666 17.8065 81.0933C21.67 77.8383 22.0467 73.9651 22.5489 69.5028C22.7234 67.457 23.0462 65.4265 23.5148 63.4274C24.2343 61.2315 25.5362 59.272 27.2817 57.7577C38.0609 47.1331 56.3642 43.9844 69.7223 45.6167C82.7542 47.3004 94.8014 53.4435 103.818 63.0024C108.386 67.8898 111.313 72.922 112.511 77.9542C113.95 83.9909 112.8 90.0566 109.458 94.3741C111.747 98.7978 114.404 104.207 113.708 109.876C113.312 113.064 111.834 116.338 109.188 119.864C102.881 128.286 92.9999 134.612 81.3804 137.674C75.2141 139.197 68.8772 139.918 62.5265 139.818ZM62.401 47.0365C47.5748 47.0365 35.1053 52.7062 28.6726 59.0617C27.176 60.3521 26.0521 62.0196 25.4176 63.891C24.9581 65.7973 24.6353 67.734 24.4517 69.6863C23.9495 74.1776 23.4858 78.8138 19.0332 82.5614C18.4343 83.0733 17.8065 83.5273 17.1883 84.0102C16.2385 84.6815 15.3439 85.4276 14.5129 86.2414C13.5709 87.3416 12.8637 88.6228 12.4349 90.0062C12.0061 91.3897 11.8647 92.8462 12.0194 94.2863C12.1741 95.7264 12.6216 97.1197 13.3344 98.3805C14.0473 99.6413 15.0103 100.743 16.1645 101.618C16.2823 101.699 16.3807 101.805 16.4525 101.929C16.5243 102.052 16.5678 102.19 16.5798 102.333C16.5931 102.477 16.5739 102.622 16.5238 102.757C16.4736 102.892 16.3938 103.015 16.2901 103.115C13.8754 105.472 13.0254 109.509 14.0106 113.933C15.4884 120.501 20.3178 126.567 27.2528 130.575C32.7486 133.743 39.2972 135.704 48.502 136.94C60.8362 138.592 71.4319 138.176 80.8975 135.685C92.1016 132.787 101.596 126.663 107.652 118.589C110.086 115.334 111.448 112.368 111.796 109.519C112.404 104.603 110.192 99.8602 107.459 94.5866C107.371 94.4157 107.336 94.2223 107.358 94.0313C107.38 93.8403 107.459 93.6603 107.585 93.5144C110.801 89.7379 111.97 83.9136 110.646 78.3212C109.526 73.6174 106.783 68.8846 102.417 64.2388C93.7029 55.0325 82.0737 49.1223 69.5001 47.5098C67.1456 47.207 64.7748 47.0489 62.401 47.0365Z" fill="#093F68"/>
<path d="M62.9225 8.46912H64.4389C73.7916 8.46912 82.7611 12.1844 89.3744 18.7977C95.9877 25.411 99.703 34.3806 99.703 43.7332V54.155H27.6681V43.7332C27.6681 34.3806 31.3834 25.411 37.9967 18.7977C44.61 12.1844 53.5796 8.46912 62.9322 8.46912H62.9225Z" fill="#725858"/>
<path d="M99.761 55.1305H27.6681C27.4119 55.1305 27.1663 55.0288 26.9851 54.8476C26.804 54.6665 26.7022 54.4208 26.7022 54.1646V43.7332C26.7124 34.1292 30.5315 24.9214 37.3216 18.1295C44.1118 11.3375 53.3186 7.51602 62.9225 7.50323H64.4486C74.0619 7.50323 83.2821 11.3188 90.0842 18.1118C96.8863 24.9049 100.714 34.12 100.727 43.7332V54.1646C100.727 54.4208 100.625 54.6665 100.444 54.8476C100.263 55.0288 100.017 55.1305 99.761 55.1305ZM28.6823 53.1988H98.7951V43.7332C98.7849 34.6399 95.1681 25.9219 88.7381 19.492C82.3082 13.062 73.5902 9.44521 64.4969 9.43498H62.9708C53.8784 9.44521 45.1615 13.0624 38.733 19.4926C32.3046 25.9228 28.6899 34.6408 28.6823 43.7332V53.1988Z" fill="#093F68"/>
<path d="M56.7119 107.298V99.6091H70.0797V107.298" fill="#FFC9B0"/>
<path d="M70.0797 108.263C69.8235 108.263 69.5778 108.162 69.3967 107.98C69.2156 107.799 69.1138 107.554 69.1138 107.298V100.536H57.6778V107.298C57.6778 107.554 57.5761 107.799 57.3949 107.98C57.2138 108.162 56.9681 108.263 56.712 108.263C56.4558 108.263 56.2101 108.162 56.029 107.98C55.8479 107.799 55.7461 107.554 55.7461 107.298V99.5705C55.7461 99.3144 55.8479 99.0687 56.029 98.8875C56.2101 98.7064 56.4558 98.6046 56.712 98.6046H70.0797C70.3358 98.6046 70.5815 98.7064 70.7627 98.8875C70.9438 99.0687 71.0455 99.3144 71.0455 99.5705V107.298C71.0455 107.554 70.9438 107.799 70.7627 107.98C70.5815 108.162 70.3358 108.263 70.0797 108.263Z" fill="#093F68"/>
<path d="M63.3668 101.357C43.6437 101.357 27.6295 89.6219 27.6295 67.9863V52.8414C48.6759 56.7918 51.8826 34.9438 51.8826 34.9438C70.9779 68.1505 99.0173 46.1865 99.0173 46.1865V67.9863C99.0559 89.6219 83.0803 101.357 63.3668 101.357Z" fill="#FFC9B0"/>
<path d="M63.3668 102.323C41.4318 102.323 26.6636 88.5305 26.6636 67.9864V52.8415C26.6612 52.6986 26.6906 52.5569 26.7497 52.4268C26.8087 52.2966 26.8958 52.1812 27.0049 52.0888C27.1139 51.9964 27.2421 51.9294 27.3801 51.8925C27.5182 51.8556 27.6627 51.8498 27.8033 51.8756C33.5986 52.967 38.5728 52.1074 42.4846 49.3064C49.4486 44.3418 50.9167 34.8762 50.9264 34.8182C50.9567 34.6212 51.0472 34.4384 51.1856 34.2948C51.3239 34.1513 51.5033 34.0541 51.6991 34.0166C51.8968 33.9774 52.1017 34.001 52.2853 34.0841C52.4689 34.1673 52.6219 34.3057 52.7229 34.4802C58.4409 44.4383 65.5304 50.3012 73.7983 51.8659C86.7507 54.3869 98.3122 45.4911 98.4281 45.4042C98.5708 45.2914 98.7425 45.2213 98.9233 45.2017C99.1041 45.1822 99.2868 45.2142 99.4503 45.2939C99.6138 45.3736 99.7514 45.4979 99.8474 45.6524C99.9434 45.8069 99.9938 45.9854 99.9928 46.1673V67.9671C100.031 88.5305 85.2729 102.323 63.3668 102.323ZM28.5953 54.0295V68.025C28.5953 90.414 46.039 100.43 63.3668 100.43C80.6946 100.43 98.1383 90.414 98.1383 68.025V48.0411C94.4197 50.4944 84.6161 55.9419 73.5085 53.8363C65.2696 52.233 58.1704 46.7564 52.3752 37.5613C51.4093 40.9419 49.1009 47.0848 43.6823 50.9483C39.5483 53.8267 34.4968 54.8601 28.634 53.9908L28.5953 54.0295Z" fill="#093F68"/>
<path d="M45.6817 70.2465C47.5754 70.2465 49.1105 68.7114 49.1105 66.8177C49.1105 64.9239 47.5754 63.3888 45.6817 63.3888C43.7879 63.3888 42.2528 64.9239 42.2528 66.8177C42.2528 68.7114 43.7879 70.2465 45.6817 70.2465Z" fill="#093F68"/>
<path d="M81.0423 70.2465C82.936 70.2465 84.4712 68.7114 84.4712 66.8177C84.4712 64.9239 82.936 63.3888 81.0423 63.3888C79.1486 63.3888 77.6135 64.9239 77.6135 66.8177C77.6135 68.7114 79.1486 70.2465 81.0423 70.2465Z" fill="#093F68"/>
<path d="M63.7339 78.0701C62.6212 78.0618 61.5106 77.9714 60.4112 77.7996C60.2863 77.7775 60.1669 77.7309 60.0599 77.6626C59.953 77.5943 59.8605 77.5056 59.7879 77.4015C59.7152 77.2975 59.6638 77.1801 59.6365 77.0562C59.6092 76.9322 59.6066 76.8041 59.6289 76.6792C59.651 76.5542 59.6976 76.4349 59.7659 76.3279C59.8342 76.2209 59.9229 76.1285 60.027 76.0558C60.131 75.9832 60.2484 75.9317 60.3723 75.9045C60.4963 75.8772 60.6244 75.8746 60.7493 75.8968C62.4671 76.1739 64.2182 76.1739 65.936 75.8968C66.2355 75.0082 64.9702 71.2413 63.0384 67.6676C62.9759 67.5551 62.9365 67.4311 62.9225 67.3032C62.9085 67.1752 62.9203 67.0457 62.9571 66.9223C62.9939 66.7989 63.055 66.6842 63.1368 66.5847C63.2186 66.4853 63.3195 66.4033 63.4334 66.3434C63.5474 66.2835 63.6722 66.247 63.8005 66.236C63.9288 66.2251 64.0579 66.2399 64.1804 66.2796C64.3029 66.3192 64.4162 66.383 64.5137 66.4671C64.6112 66.5512 64.6908 66.654 64.748 66.7693C65.7139 68.5562 68.6115 74.5543 67.6456 76.7565C67.5401 76.9978 67.3794 77.2109 67.1764 77.3787C66.9734 77.5465 66.7338 77.6642 66.4769 77.7223C65.58 77.9489 64.6589 78.0656 63.7339 78.0701Z" fill="#093F68"/>
<path d="M22.2689 41.7049H27.6681V76.9979H22.2689C20.3707 76.9979 18.5502 76.2439 17.208 74.9017C15.8658 73.5594 15.1117 71.739 15.1117 69.8408V48.862C15.1117 46.9638 15.8658 45.1434 17.208 43.8011C18.5502 42.4589 20.3707 41.7049 22.2689 41.7049Z" fill="#70CC40"/>
<path d="M27.6681 77.9542H22.2689C20.1162 77.9542 18.0515 77.0997 16.5284 75.5784C15.0053 74.0571 14.1484 71.9935 14.1458 69.8408V48.862C14.1484 46.7084 15.005 44.6438 16.5278 43.121C18.0506 41.5982 20.1153 40.7416 22.2689 40.739H27.6681C27.9243 40.739 28.1699 40.8408 28.3511 41.0219C28.5322 41.203 28.634 41.4487 28.634 41.7049V76.9883C28.634 77.2445 28.5322 77.4901 28.3511 77.6713C28.1699 77.8524 27.9243 77.9542 27.6681 77.9542ZM22.2689 42.6708C20.6268 42.6708 19.0521 43.3231 17.891 44.4841C16.7299 45.6452 16.0776 47.22 16.0776 48.862V69.8408C16.0802 71.4812 16.7336 73.0535 17.8944 74.2125C19.0552 75.3715 20.6285 76.0224 22.2689 76.0224H26.7022V42.6708H22.2689Z" fill="#093F68"/>
<path d="M104.465 76.9883H99.0656V41.6952H104.465C106.363 41.6952 108.183 42.4493 109.526 43.7915C110.868 45.1337 111.622 46.9542 111.622 48.8523V69.8312C111.622 71.7293 110.868 73.5498 109.526 74.892C108.183 76.2342 106.363 76.9883 104.465 76.9883Z" fill="#70CC40"/>
<path d="M104.455 77.9542H99.0656C98.8094 77.9542 98.5637 77.8524 98.3826 77.6713C98.2015 77.4901 98.0997 77.2445 98.0997 76.9883V41.7049C98.0997 41.4487 98.2015 41.203 98.3826 41.0219C98.5637 40.8408 98.8094 40.739 99.0656 40.739H104.455C106.609 40.7416 108.673 41.5982 110.196 43.121C111.719 44.6438 112.576 46.7084 112.578 48.862V69.8408C112.576 71.9935 111.719 74.0571 110.196 75.5784C108.673 77.0997 106.608 77.9542 104.455 77.9542ZM100.031 76.0224H104.455C106.096 76.0224 107.669 75.3715 108.83 74.2125C109.99 73.0535 110.644 71.4812 110.646 69.8408V48.862C110.646 47.22 109.994 45.6452 108.833 44.4841C107.672 43.3231 106.097 42.6708 104.455 42.6708H100.031V76.0224Z" fill="#093F68"/>
<path d="M63.6952 91.2929C61.14 91.3459 58.6146 90.7369 56.3642 89.5253C54.3124 88.4405 52.6684 86.7186 51.6797 84.6187C51.585 84.3805 51.5887 84.1143 51.6901 83.8789C51.7916 83.6434 51.9824 83.4578 52.2206 83.3631C52.4589 83.2683 52.725 83.272 52.9605 83.3735C53.196 83.4749 53.3815 83.6657 53.4763 83.904C53.6308 84.3 57.5716 93.4275 73.7597 87.1686C73.9992 87.0764 74.2655 87.0831 74.5001 87.1873C74.7347 87.2914 74.9182 87.4845 75.0105 87.724C75.1027 87.9635 75.096 88.2298 74.9918 88.4644C74.8877 88.699 74.6946 88.8826 74.4551 88.9748C71.039 90.3946 67.3929 91.1801 63.6952 91.2929Z" fill="#093F68"/>
<path d="M39.9347 95.311C35.2599 95.311 28.943 94.7701 25.746 92.1912C20.3564 87.8254 20.5593 77.5195 20.5689 77.0849C20.5689 76.8287 20.6707 76.5831 20.8518 76.4019C21.0329 76.2208 21.2786 76.119 21.5348 76.119C21.791 76.119 22.0366 76.2208 22.2178 76.4019C22.3989 76.5831 22.5007 76.8287 22.5007 77.0849C22.5007 77.1815 22.3171 86.8789 26.9533 90.6071C31.5895 94.3354 45.305 93.0605 45.4595 93.0508C45.7129 93.0265 45.9656 93.1031 46.1627 93.2641C46.3599 93.4251 46.4855 93.6573 46.5123 93.9104C46.5257 94.0367 46.5141 94.1643 46.4781 94.286C46.4422 94.4077 46.3825 94.5212 46.3027 94.6198C46.2229 94.7185 46.1244 94.8005 46.0128 94.8611C45.9013 94.9216 45.7789 94.9596 45.6527 94.9729C45.4209 95.0695 43.0352 95.311 39.9347 95.311Z" fill="#093F68"/>
<path d="M47.8645 90.3464H38.6115C36.7764 90.3464 35.2888 91.834 35.2888 93.669C35.2888 95.504 36.7764 96.9916 38.6115 96.9916H47.8645C49.6996 96.9916 51.1872 95.504 51.1872 93.669C51.1872 91.834 49.6996 90.3464 47.8645 90.3464Z" fill="#70CC40"/>
<path d="M47.8645 97.9575H38.6115C37.4741 97.9575 36.3833 97.5056 35.579 96.7014C34.7748 95.8972 34.323 94.8064 34.323 93.669C34.323 92.5316 34.7748 91.4408 35.579 90.6366C36.3833 89.8323 37.4741 89.3805 38.6115 89.3805H47.8645C49.0019 89.3805 50.0927 89.8323 50.897 90.6366C51.7012 91.4408 52.153 92.5316 52.153 93.669C52.153 94.8064 51.7012 95.8972 50.897 96.7014C50.0927 97.5056 49.0019 97.9575 47.8645 97.9575ZM38.6115 91.2929C37.9864 91.2929 37.387 91.5412 36.945 91.9832C36.503 92.4252 36.2547 93.0246 36.2547 93.6497C36.2547 94.2747 36.503 94.8742 36.945 95.3161C37.387 95.7581 37.9864 96.0064 38.6115 96.0064H47.8645C48.4896 96.0064 49.089 95.7581 49.531 95.3161C49.973 94.8742 50.2213 94.2747 50.2213 93.6497C50.2213 93.0246 49.973 92.4252 49.531 91.9832C49.089 91.5412 48.4896 91.2929 47.8645 91.2929H38.6115Z" fill="#093F68"/>
<path d="M47.1594 107.297H79.6225C85.1839 107.297 90.5175 109.507 94.4499 113.439C98.3824 117.372 100.592 122.705 100.592 128.267V173.991H26.2193V128.276C26.2167 122.718 28.4209 117.387 32.3474 113.453C36.2738 109.519 41.6014 107.305 47.1594 107.297Z" fill="#68E1FD"/>
<path d="M100.601 174.967H26.2289C25.9728 174.967 25.7271 174.865 25.546 174.684C25.3648 174.503 25.2631 174.257 25.2631 174.001V128.276C25.2682 122.459 27.5805 116.882 31.6927 112.768C35.805 108.654 41.3812 106.339 47.1981 106.332H79.6611C85.4797 106.337 91.0584 108.65 95.1727 112.765C99.287 116.879 101.601 122.458 101.606 128.276V174.001C101.606 174.131 101.58 174.26 101.529 174.38C101.478 174.499 101.403 174.608 101.309 174.698C101.216 174.788 101.105 174.858 100.983 174.905C100.861 174.951 100.731 174.972 100.601 174.967ZM27.1948 173.035H99.6354V128.276C99.6278 122.971 97.5168 117.885 93.7653 114.133C90.0138 110.382 84.9279 108.271 79.6225 108.263H47.1594C41.8549 108.271 36.77 110.382 33.0201 114.134C29.2701 117.886 27.1613 122.972 27.1562 128.276L27.1948 173.035Z" fill="#093F68"/>
<path d="M37.4428 59.8633C37.0603 59.852 36.6958 59.6983 36.4207 59.4323C36.1456 59.1663 35.9797 58.8072 35.9555 58.4253C35.9313 58.0434 36.0506 57.6662 36.29 57.3676C36.5293 57.0691 36.8716 56.8706 37.2496 56.8112L53.2058 54.8118C53.5961 54.7876 53.981 54.9132 54.2819 55.1629C54.5828 55.4127 54.7771 55.7678 54.8251 56.1559C54.8732 56.544 54.7713 56.9358 54.5405 57.2514C54.3096 57.567 53.967 57.7826 53.5825 57.8543L37.6263 59.8537L37.4428 59.8633Z" fill="#093F68"/>
<path d="M89.2909 59.8633H89.1364L73.1801 57.864C72.7957 57.7923 72.4531 57.5766 72.2222 57.261C71.9913 56.9454 71.8895 56.5536 71.9375 56.1656C71.9856 55.7775 72.1799 55.4223 72.4808 55.1726C72.7817 54.9228 73.1665 54.7972 73.5568 54.8215L89.5131 56.8208C89.8906 56.8798 90.2326 57.0774 90.4723 57.375C90.7119 57.6726 90.832 58.0489 90.8091 58.4304C90.7862 58.8118 90.6218 59.171 90.3482 59.4377C90.0747 59.7045 89.7114 59.8597 89.3295 59.873L89.2909 59.8633Z" fill="#093F68"/>
<path d="M63.3958 124.683C55.2921 124.683 43.6147 107.297 43.6147 107.297H83.1673C83.1673 107.297 71.4898 124.683 63.3958 124.683Z" fill="white"/>
<path d="M63.3958 125.649C54.8768 125.649 43.3056 108.563 42.813 107.838C42.7283 107.692 42.6836 107.525 42.6836 107.355C42.6836 107.186 42.7283 107.019 42.813 106.872C42.8951 106.718 43.0176 106.589 43.1673 106.499C43.3169 106.409 43.4883 106.361 43.663 106.361H83.2156C83.3919 106.359 83.5653 106.406 83.7168 106.497C83.8684 106.587 83.9923 106.717 84.0752 106.872C84.1513 107.024 84.1861 107.194 84.1759 107.363C84.1657 107.533 84.111 107.697 84.0173 107.838C83.486 108.563 71.9052 125.649 63.3958 125.649ZM45.4692 108.263C49.3327 113.663 57.7551 123.717 63.3958 123.717C69.0365 123.717 77.43 113.663 81.3225 108.263H45.4692Z" fill="#093F68"/>
<path d="M49.0236 107.297C49.0236 107.297 54.7319 113.093 57.3591 112.359C59.9863 111.625 63.2896 107.297 63.2896 107.297H49.0236Z" fill="white"/>
<path d="M56.9051 113.382C53.8336 113.382 49.2747 108.939 48.3378 107.983C48.2016 107.848 48.1087 107.675 48.071 107.487C48.0332 107.299 48.0524 107.104 48.1259 106.927C48.1995 106.75 48.3242 106.599 48.484 106.493C48.6439 106.386 48.8317 106.33 49.0236 106.332H63.2896C63.4706 106.331 63.6481 106.382 63.8018 106.477C63.9555 106.573 64.0792 106.71 64.1588 106.872C64.2389 107.034 64.2722 107.214 64.2551 107.393C64.2381 107.572 64.1713 107.743 64.0623 107.887C63.7049 108.36 60.4789 112.503 57.6199 113.286C57.3875 113.352 57.1468 113.385 56.9051 113.382ZM51.4672 108.263C53.6984 110.195 56.0938 111.702 57.108 111.431C58.3829 111.074 60.0056 109.558 61.2129 108.263H51.4672Z" fill="#093F68"/>
<path d="M77.768 107.297C77.768 107.297 72.05 113.093 69.4229 112.359C66.7957 111.625 63.4924 107.297 63.4924 107.297H77.768Z" fill="white"/>
<path d="M69.8768 113.382C69.6383 113.385 69.4008 113.352 69.1717 113.286C66.2741 112.504 63.0867 108.36 62.7294 107.887C62.6194 107.744 62.5516 107.573 62.5337 107.394C62.5157 107.215 62.5482 107.034 62.6276 106.872C62.707 106.71 62.83 106.574 62.9829 106.478C63.1357 106.383 63.3122 106.332 63.4924 106.332H77.768C77.9587 106.333 78.1448 106.39 78.303 106.497C78.4611 106.603 78.5842 106.754 78.6566 106.93C78.7306 107.106 78.7508 107.3 78.7147 107.488C78.6786 107.675 78.5878 107.847 78.4538 107.983C77.5459 108.93 72.9483 113.382 69.8768 113.382ZM65.5787 108.263C66.7667 109.558 68.399 111.074 69.6836 111.431C70.6495 111.702 73.0932 110.185 75.3147 108.263H65.5787Z" fill="#093F68"/>
<path d="M63.4924 125.649C63.2362 125.649 62.9906 125.547 62.8094 125.366C62.6283 125.185 62.5265 124.939 62.5265 124.683V107.297C62.5265 107.041 62.6283 106.796 62.8094 106.615C62.9906 106.433 63.2362 106.332 63.4924 106.332C63.7486 106.332 63.9942 106.433 64.1754 106.615C64.3565 106.796 64.4583 107.041 64.4583 107.297V124.683C64.4583 124.939 64.3565 125.185 64.1754 125.366C63.9942 125.547 63.7486 125.649 63.4924 125.649Z" fill="#093F68"/>
<path d="M18.3088 103.434C18.3088 103.434 -6.07958 149.612 2.85476 159.358C11.7891 169.104 22.9739 162.574 26.2386 155.495C29.5033 148.415 31.0004 108.679 31.0004 108.679L18.3088 103.434Z" fill="#68E1FD"/>
<path d="M13.0447 165.26C9.93463 165.26 5.99386 164.158 2.17865 160.015C-7.1517 149.873 16.4446 104.892 17.4491 102.98C17.5627 102.768 17.7514 102.605 17.9783 102.525C18.2052 102.445 18.4539 102.452 18.6758 102.545L31.3674 107.8C31.5565 107.877 31.7163 108.012 31.8239 108.185C31.9315 108.359 31.9813 108.562 31.9662 108.766C31.8986 110.398 30.4595 148.782 27.1369 155.949C25.9943 158.318 24.3091 160.385 22.218 161.981C20.1269 163.577 17.689 164.657 15.1021 165.134C14.4204 165.227 13.7327 165.269 13.0447 165.26ZM18.7531 104.661C11.8471 117.922 -3.23991 151.274 3.59849 158.701C6.88246 162.275 10.7653 163.82 14.822 163.183C17.0907 162.75 19.2273 161.794 21.0616 160.391C22.896 158.987 24.3776 157.175 25.3886 155.099C28.2863 148.782 29.7834 114.532 29.9959 109.326L18.7531 104.661Z" fill="#093F68"/>
<path d="M25.9199 85.6619C25.9199 85.6619 42.0596 84.0392 43.5084 87.6612C44.9572 91.2833 39.8767 92.1912 33.898 91.4668C33.898 91.4668 38.795 94.1906 38.795 98.904C38.795 103.618 31.0004 108.679 31.0004 108.679L18.3088 103.424C18.3088 103.424 18.4826 89.8345 25.9199 85.6619Z" fill="#FFC9B0"/>
<path d="M31.0004 109.645C30.8717 109.646 30.7439 109.623 30.6237 109.577L17.9321 104.313C17.756 104.238 17.606 104.113 17.5011 103.953C17.3962 103.793 17.3411 103.606 17.3429 103.415C17.3429 102.835 17.623 89.2066 25.4466 84.8119C25.5615 84.7446 25.6904 84.7049 25.8233 84.696C29.7834 84.3 42.813 83.3051 44.4067 87.2942C44.6684 87.8234 44.7789 88.4145 44.726 89.0025C44.6732 89.5905 44.4591 90.1524 44.1073 90.6265C42.8034 92.3361 39.7319 92.7031 36.9598 92.6548C37.8136 93.4599 38.5004 94.4254 38.981 95.496C39.4616 96.5666 39.7266 97.7213 39.7609 98.8944C39.7609 104.071 31.86 109.268 31.5219 109.519C31.3634 109.609 31.1826 109.653 31.0004 109.645ZM19.3036 102.787L30.8941 107.616C33.1639 106.042 37.8388 102.14 37.8388 98.9233C37.8388 94.8184 33.4827 92.3554 33.4344 92.3361C33.2359 92.2283 33.0814 92.0544 32.9978 91.8446C32.9143 91.6348 32.9068 91.4024 32.9769 91.1877C33.0469 90.9729 33.19 90.7896 33.3812 90.6694C33.5724 90.5492 33.7997 90.4999 34.0236 90.5299C39.2586 91.1674 41.9148 90.3657 42.5909 89.4771C42.7551 89.2549 42.9482 88.8686 42.5909 88.0379C41.8665 86.2318 33.5696 85.9034 26.171 86.6278C20.4047 90.0566 19.4485 100.14 19.3036 102.797V102.787Z" fill="#093F68"/>
<path d="M99.761 188.083H24.1523C22.3929 188.086 20.6975 187.423 19.406 186.229C18.1145 185.034 17.3224 183.395 17.1883 181.641L13.8174 138.176C13.7429 137.217 13.8676 136.252 14.1838 135.342C14.4999 134.433 15.0007 133.599 15.6547 132.892C16.3087 132.186 17.1017 131.622 17.9839 131.236C18.8662 130.851 19.8186 130.652 20.7814 130.652H103.122C104.085 130.652 105.037 130.851 105.92 131.236C106.802 131.622 107.595 132.186 108.249 132.892C108.903 133.599 109.404 134.433 109.72 135.342C110.036 136.252 110.161 137.217 110.086 138.176L106.715 181.641C106.581 183.393 105.791 185.031 104.501 186.225C103.212 187.42 101.519 188.083 99.761 188.083Z" fill="white"/>
<path d="M99.761 189.049H24.1523C22.1529 189.041 20.229 188.284 18.7608 186.927C17.2926 185.569 16.3869 183.711 16.2225 181.718L12.8516 138.254C12.7678 137.161 12.9106 136.063 13.271 135.028C13.6315 133.993 14.2018 133.043 14.9463 132.239C15.6907 131.435 16.5933 130.793 17.5974 130.354C18.6015 129.914 19.6855 129.687 20.7814 129.686H103.122C104.218 129.687 105.302 129.914 106.306 130.354C107.31 130.793 108.213 131.435 108.957 132.239C109.702 133.043 110.272 133.993 110.633 135.028C110.993 136.063 111.136 137.161 111.052 138.254L107.681 181.718C107.517 183.709 106.613 185.566 105.146 186.923C103.68 188.281 101.759 189.039 99.761 189.049ZM20.7911 131.589C19.961 131.589 19.14 131.761 18.3796 132.094C17.6191 132.427 16.9358 132.913 16.3724 133.523C15.8091 134.132 15.3779 134.852 15.1061 135.636C14.8343 136.42 14.7277 137.252 14.793 138.08L18.1542 181.544C18.2777 183.054 18.9636 184.463 20.0761 185.492C21.1887 186.52 22.6469 187.093 24.162 187.098H99.761C101.276 187.093 102.734 186.52 103.847 185.492C104.959 184.463 105.645 183.054 105.769 181.544L109.13 138.08C109.195 137.252 109.089 136.42 108.817 135.636C108.545 134.852 108.114 134.132 107.551 133.523C106.987 132.913 106.304 132.427 105.543 132.094C104.783 131.761 103.962 131.589 103.132 131.589H20.7911Z" fill="#093F68"/>
<path d="M61.947 167.259C60.3844 167.259 58.8568 166.796 57.5575 165.927C56.2582 165.059 55.2456 163.825 54.6476 162.382C54.0496 160.938 53.8931 159.349 54.198 157.817C54.5028 156.284 55.2553 154.876 56.3603 153.771C57.4652 152.666 58.873 151.914 60.4056 151.609C61.9382 151.304 63.5268 151.461 64.9705 152.059C66.4142 152.657 67.6482 153.669 68.5163 154.969C69.3845 156.268 69.8479 157.795 69.8479 159.358C69.8453 161.453 69.0121 163.461 67.5309 164.942C66.0498 166.423 64.0417 167.256 61.947 167.259ZM61.947 153.389C60.7664 153.389 59.6124 153.739 58.6307 154.395C57.6491 155.051 56.8841 155.983 56.4323 157.074C55.9805 158.165 55.8623 159.365 56.0926 160.523C56.3229 161.681 56.8914 162.744 57.7262 163.579C58.561 164.414 59.6246 164.982 60.7825 165.213C61.9404 165.443 63.1406 165.325 64.2313 164.873C65.322 164.421 66.2542 163.656 66.9101 162.674C67.566 161.693 67.9161 160.539 67.9161 159.358C67.9136 157.776 67.2838 156.259 66.165 155.14C65.0461 154.021 63.5293 153.392 61.947 153.389Z" fill="#DFEAEF"/>
</svg>
